# xmcd
#
# Track frame offsets: 
#        150
#        15814
#        30305
#        44301
#        59584
#        72687
#        87003
#        98543
#        114803
#        123574
#
# Disc length: 1869 seconds
#
# Revision: 2
# Processed by: cddbd v1.5.2PL0 Copyright (c) Steve Scherf et al.
# Submitted via: ExactAudioCopy v0.95b4
#
DISCID=72074b0a
DTITLE=The Black Sorrows - Sonola (Cafe Neon)
DYEAR=1982
DGENRE=Pop Rock
TTITLE0=Brown Eyed Girl
TTITLE1=You Better Move On
TTITLE2=Have Mercy
TTITLE3=What A Difference A Day Makes
TTITLE4=Before I Grow Too Old
TTITLE5=Don't Look Back
TTITLE6=Promised Land
TTITLE7=Young Boy Blues
TTITLE8=Blow Joe Blow
TTITLE9=Brown Eyed Girl [Live]
EXTD=
EXTT0=
EXTT1=
EXTT2=
EXTT3=
EXTT4=
EXTT5=
EXTT6=
EXTT7=
EXTT8=
EXTT9=
PLAYORDER=
